<svg width="644" height="418" viewBox="0 0 644 418" fill="none" xmlns="http://www.w3.org/2000/svg">
<path d="M87.8186 241.59C110.944 241.59 129.692 222.772 129.692 199.558C129.692 176.345 110.944 157.526 87.8186 157.526C64.6929 157.526 45.9457 176.345 45.9457 199.558C45.9457 222.772 64.6929 241.59 87.8186 241.59Z" fill="#B7856B"/>
<path d="M85.5358 267.62C95.2604 267.62 103.143 257.137 103.143 244.204C103.143 231.272 95.2604 220.788 85.5358 220.788C75.8115 220.788 67.9283 231.272 67.9283 244.204C67.9283 257.137 75.8115 267.62 85.5358 267.62Z" fill="#F5EA72"/>
<path d="M341.453 241.59C364.578 241.59 383.326 222.772 383.326 199.558C383.326 176.345 364.578 157.526 341.453 157.526C318.327 157.526 299.58 176.345 299.58 199.558C299.58 222.772 318.327 241.59 341.453 241.59Z" fill="#B7856B"/>
<path d="M343.736 267.62C353.46 267.62 361.343 257.137 361.343 244.204C361.343 231.272 353.46 220.788 343.736 220.788C334.011 220.788 326.128 231.272 326.128 244.204C326.128 257.137 334.011 267.62 343.736 267.62Z" fill="#F5EA72"/>
<path d="M214.636 116.895C247.554 116.895 274.239 92.098 274.239 61.5089C274.239 30.9202 247.554 6.12305 214.636 6.12305C181.718 6.12305 155.032 30.9202 155.032 61.5089C155.032 92.098 181.718 116.895 214.636 116.895Z" fill="#ABB6C4"/>
<path d="M295.829 52.8672L254.102 97.7246C250.273 101.841 244.064 101.841 240.234 97.7246L232.773 89.7034C228.943 85.5863 228.943 78.9122 232.773 74.7951L274.5 29.9376C278.329 25.8213 284.538 25.8213 288.368 29.9376L295.829 37.9588C299.659 42.0759 299.659 48.7509 295.829 52.8672Z" fill="#A2E0B8"/>
<path d="M306.726 411.877C322.935 411.877 335.262 396.041 332.21 378.928C320.187 311.523 272.112 260.512 214.636 260.512C157.16 260.512 109.085 311.523 97.0617 378.928C94.0096 396.041 106.337 411.877 122.545 411.877H306.726Z" fill="#FBF1CF"/>
<path d="M308.788 317.7C286.714 282.941 252.743 260.512 214.636 260.512C176.528 260.512 142.558 282.941 120.483 317.7C146.125 334.967 179.04 344.358 214.636 344.358C250.232 344.358 283.147 334.967 308.788 317.7Z" fill="#FAE0BD"/>
<path d="M156.476 279.418C126.733 300.167 104.673 336.26 97.0625 378.928C94.0103 396.041 106.337 411.877 122.546 411.877H192.623C191.971 366.319 176.73 309.914 156.476 279.418Z" fill="#D1C4E9"/>
<path d="M272.796 279.418C302.539 300.167 324.599 336.26 332.209 378.928C335.261 396.041 322.934 411.877 306.726 411.877H236.649C237.3 366.319 252.541 309.914 272.796 279.418Z" fill="#D1C4E9"/>
<path d="M308.79 317.699C298.933 302.181 286.705 289.121 272.796 279.418C262.43 295.025 253.384 317.421 246.928 341.672C270 337.749 291.123 329.597 308.79 317.699Z" fill="#B0ADE2"/>
<path d="M182.342 341.673C175.886 317.421 166.841 295.025 156.475 279.419C142.566 289.122 130.339 302.182 120.481 317.7C138.149 329.597 159.272 337.749 182.342 341.673Z" fill="#B0ADE2"/>
<path d="M342.944 206.301C342.944 133.29 285.498 82.0594 214.636 82.0594C143.774 82.0594 86.3279 133.289 86.3279 206.301C86.3279 279.313 143.773 319.867 214.636 319.867C285.499 319.867 342.944 279.312 342.944 206.301Z" fill="#CB9D82"/>
<path d="M210.321 75.0628C213.153 75.8531 216.117 75.8531 218.951 75.0628C309.112 49.911 370.474 150.287 343.658 159.825C311.045 171.426 241.833 149.787 218.505 132.176C216.177 130.418 213.096 130.418 210.768 132.176C187.44 149.788 118.227 171.426 85.6156 159.825C58.7984 150.287 120.16 49.9118 210.321 75.0628Z" fill="#C6C6C6"/>
<path d="M131.099 84.2099C88.7672 107.365 67.857 153.51 85.6141 159.826C106.311 167.188 141.747 161.162 170.842 151.274C143.729 147.339 119.684 104.97 131.099 84.2099Z" fill="#ABB6C4"/>
<path d="M155.114 234.25C167.243 234.25 177.076 225.832 177.076 215.448C177.076 205.064 167.243 196.646 155.114 196.646C142.985 196.646 133.152 205.064 133.152 215.448C133.152 225.832 142.985 234.25 155.114 234.25Z" fill="#EDA1AB"/>
<path d="M274.158 234.25C286.288 234.25 296.12 225.832 296.12 215.448C296.12 205.064 286.288 196.646 274.158 196.646C262.028 196.646 252.196 205.064 252.196 215.448C252.196 225.832 262.028 234.25 274.158 234.25Z" fill="#EDA1AB"/>
<path d="M167.914 177.627C159.01 177.627 151.765 185.415 151.765 194.988C151.765 198.37 154.315 201.111 157.46 201.111C160.606 201.111 163.156 198.37 163.156 194.988C163.156 192.167 165.291 189.873 167.914 189.873C170.538 189.873 172.672 192.167 172.672 194.988C172.672 198.37 175.222 201.111 178.367 201.111C181.513 201.111 184.063 198.37 184.063 194.988C184.063 185.415 176.818 177.627 167.914 177.627ZM313.912 185.757C312.23 186.07 301.545 187.208 300.197 187.257C297.052 187.262 294.505 190.006 294.508 193.388C294.512 196.768 297.061 199.504 300.204 199.504H300.211C301.257 199.502 314.683 198.224 316.706 197.627C319.739 196.73 321.522 193.36 320.688 190.099C319.874 186.919 316.873 185.02 313.912 185.757ZM389.021 199.558C389.021 178.103 374.949 159.52 355.237 153.484C356.039 149.015 355.527 144.006 354.267 139.414C349.976 123.767 334.515 100.602 309.648 84.1176C303.11 79.7833 295.212 75.4392 286.111 71.9736L299.857 57.1966C305.901 50.6988 305.901 40.1264 299.857 33.6294L292.396 25.6082C286.353 19.1104 276.518 19.1104 270.473 25.6082L268.908 27.2908C256.876 10.2933 236.736 0 214.636 0C175.664 0 144.644 32.3836 149.918 69.6223C137.05 73.6023 126.185 79.5547 117.623 85.4728C114.977 87.3016 114.211 91.0897 115.912 93.9341C117.613 96.7792 121.138 97.603 123.782 95.7734C148.718 78.5407 178.121 72.4071 208.89 80.99C212.649 82.039 216.623 82.039 220.381 80.9908C250.439 72.6055 279.209 78.3285 303.668 94.5423C337.932 117.256 350.05 151.103 341.868 154.014C312.342 164.516 245.174 144.83 221.777 127.166C217.505 123.942 211.765 123.943 207.493 127.167C183.785 145.066 116.67 164.425 87.4032 154.014C86.1479 153.568 85.5282 152.823 85.1925 151.358C83.6562 144.647 89.6056 129.084 103.657 113.465C105.844 111.034 105.783 107.157 103.522 104.807C101.26 102.456 97.6549 102.522 95.4684 104.951C79.9942 122.153 71.6488 141.077 73.9765 153.502C54.2942 159.558 40.25 178.126 40.25 199.56C40.25 216.281 48.6524 231.502 62.4437 240.284C59.8229 265.2 81.2313 282.161 97.6936 269.431C105.264 281.533 114.99 291.636 126.185 299.769C108.737 321.191 96.7792 348 91.4677 377.776C87.748 398.631 102.731 418 122.545 418H289.94C293.086 418 295.636 415.259 295.636 411.877C295.636 408.495 293.086 405.754 289.94 405.754H242.529C243.697 378.408 249.94 347.102 259.628 320.157C271.748 316.85 283.036 312.174 293.187 306.232C309.816 326.089 321.629 352.123 326.616 380.081C328.381 389.975 323.358 400.044 314.674 404.023C311.78 405.349 310.434 408.946 311.667 412.057C312.898 415.163 316.241 416.617 319.14 415.289C332.722 409.066 340.571 393.289 337.804 377.775C332.493 347.998 320.535 321.19 303.087 299.767C314.258 291.651 323.993 281.554 331.578 269.43C348.109 282.211 369.436 265.081 366.828 240.282C380.618 231.5 389.021 216.279 389.021 199.558ZM232.978 65.915C227.975 66.6081 222.822 67.6572 217.519 69.1365C215.633 69.6631 213.638 69.6631 211.751 69.1365C192.894 63.8756 175.885 63.9197 161.05 66.8212C157.533 37.5155 182.863 12.2461 214.636 12.2461C233.755 12.2461 251.016 21.2641 260.762 36.0476L232.978 65.915ZM273.651 68.0507C266.36 66.2261 258.473 65.0619 250.038 64.8937L278.527 34.267C280.134 32.5403 282.733 32.5403 284.34 34.267L291.801 42.2882C293.403 44.0108 293.403 46.8144 291.801 48.537L273.651 68.0507ZM65.9766 228.177C57.0115 221.453 51.6415 210.953 51.6415 199.558C51.6415 182.29 64.1334 167.49 81.0217 164.302C82.7479 165.356 84.3063 165.85 86.4843 166.49C82.6029 179.133 80.6314 192.489 80.6314 206.3C80.6314 209.325 80.7347 212.306 80.9215 215.249C74.6759 216.846 69.3318 221.62 65.9766 228.177ZM73.6241 244.204C73.6241 236.457 77.3514 229.708 82.2892 227.598C84.0678 238.724 87.2704 249.159 91.8558 258.786C83.698 266.37 73.6241 257.094 73.6241 244.204ZM122.545 405.754C109.869 405.754 100.285 393.372 102.656 380.082C107.643 352.123 119.456 326.089 136.084 306.232C146.235 312.174 157.523 316.85 169.644 320.157C179.332 347.102 185.575 378.408 186.743 405.754H122.545ZM231.122 405.754H198.149C197.081 379.477 191.529 349.687 182.819 323.149C193.013 325.02 203.67 325.989 214.636 325.989C225.601 325.989 236.258 325.02 246.453 323.149C237.742 349.688 232.189 379.478 231.122 405.754ZM214.636 313.743C148.706 313.743 92.0237 277.159 92.0237 206.3C92.0237 193.196 93.9754 180.564 97.8204 168.676C132.886 172.498 190.913 154.646 214.04 137.187C214.402 136.914 214.87 136.914 215.23 137.186C237.565 154.048 295.39 172.603 331.45 168.671C335.296 180.561 337.248 193.194 337.248 206.299C337.248 277.173 280.55 313.743 214.636 313.743ZM337.416 258.786C342 249.159 345.204 238.724 346.982 227.598C351.92 229.709 355.647 236.457 355.647 244.204C355.647 257.152 345.53 266.329 337.416 258.786ZM363.295 228.177C359.94 221.621 354.596 216.846 348.349 215.249C349.39 198.863 347.633 182.28 342.788 166.495C344.879 165.882 346.592 165.322 348.281 164.308C365.153 167.509 377.629 182.302 377.629 199.558C377.629 210.953 372.26 221.453 363.295 228.177ZM229.467 203.506C227.094 201.285 223.497 201.55 221.43 204.1C219.715 206.217 217.238 207.431 214.636 207.431C212.034 207.431 209.557 206.217 207.841 204.1C205.774 201.55 202.176 201.286 199.805 203.506C197.433 205.729 197.186 209.596 199.253 212.146C203.133 216.931 208.74 219.676 214.635 219.676C220.531 219.676 226.137 216.931 230.017 212.146C232.085 209.597 231.838 205.729 229.467 203.506ZM129.15 187.258C127.727 187.207 117.042 186.07 115.36 185.757C112.397 185.017 109.398 186.919 108.585 190.099C107.751 193.36 109.534 196.73 112.566 197.627C114.589 198.224 128.016 199.503 129.061 199.504H129.068C132.211 199.504 134.797 196.767 134.801 193.389C134.805 190.006 132.296 187.262 129.15 187.258ZM261.358 177.627C252.453 177.627 245.208 185.415 245.208 194.988C245.208 198.37 247.758 201.111 250.904 201.111C254.05 201.111 256.6 198.37 256.6 194.988C256.6 192.167 258.735 189.873 261.358 189.873C263.982 189.873 266.116 192.167 266.116 194.988C266.116 198.37 268.666 201.111 271.811 201.111C274.957 201.111 277.507 198.37 277.507 194.988C277.508 185.415 270.263 177.627 261.358 177.627Z" fill="black"/>
<path d="M548.449 411.876C565.849 411.876 579.083 394.876 575.806 376.505C562.898 304.141 511.288 249.379 449.584 249.379C387.881 249.379 336.27 304.141 323.363 376.505C320.086 394.876 333.321 411.876 350.72 411.876H548.449Z" fill="#7C88AD"/>
<path d="M548.93 308.101C525.206 272.311 489.511 249.379 449.585 249.379C409.659 249.379 373.964 272.312 350.241 308.101C377.738 325.375 412.306 334.737 449.585 334.737C486.866 334.738 521.433 325.375 548.93 308.101Z" fill="#6171A3"/>
<path d="M536.7 258.126V277.186C530.299 290.567 501.801 336.661 477.161 369.421C462.957 388.305 436.212 388.305 422.008 369.421C397.369 336.661 368.87 290.568 362.469 277.186V258.126H536.7Z" fill="#B2C9EC"/>
<path d="M362.469 277.186C366.319 285.233 378.159 305.107 392.344 326.798C410.183 332.011 429.488 334.738 449.586 334.738C469.683 334.738 488.988 332.011 506.827 326.798C521.012 305.108 532.852 285.233 536.701 277.186V258.126H362.469V277.186Z" fill="#8EAFE2"/>
<path d="M511.442 263.222C504.623 277.477 469.806 329.808 454.332 350.152C451.881 353.377 447.289 353.377 444.837 350.152C429.365 329.807 394.547 277.476 387.728 263.222H511.442Z" fill="#FBF1CF"/>
<path d="M433.231 334.127C438.614 334.531 444.069 334.738 449.584 334.738C455.1 334.738 460.556 334.531 465.938 334.127C482.956 309.87 506.026 274.542 511.441 263.222H387.728C393.144 274.542 416.213 309.87 433.231 334.127Z" fill="#FAE0BD"/>
<path d="M296.375 163.485C270.888 66.1065 316.692 5.72715 405.024 17.5456C575.425 -23.1781 620.59 48.8237 601.097 163.485H296.375Z" fill="#ABB6C4"/>
<path d="M397.909 121.031C346.555 105.514 338.499 53.7482 355.843 19.1975C300.774 32.3559 276.17 86.2901 296.375 163.485H394.64C396.709 152.4 397.909 138.462 397.909 121.031Z" fill="#999FB0"/>
<path d="M306.31 219.354C330.565 219.354 350.227 199.028 350.227 173.955C350.227 148.881 330.565 128.555 306.31 128.555C282.055 128.555 262.393 148.881 262.393 173.955C262.393 199.028 282.055 219.354 306.31 219.354Z" fill="#F2BB88"/>
<path d="M592.86 219.354C617.114 219.354 636.776 199.028 636.776 173.955C636.776 148.881 617.114 128.555 592.86 128.555C568.604 128.555 548.942 148.881 548.942 173.955C548.942 199.028 568.604 219.354 592.86 219.354Z" fill="#F2BB88"/>
<path d="M592.252 183.967C592.252 102.784 528.378 45.8213 449.585 45.8213C370.792 45.8213 306.918 102.784 306.918 183.967C306.918 265.148 370.793 310.242 449.586 310.242C528.378 310.242 592.252 265.148 592.252 183.967Z" fill="#F2D1A5"/>
<path d="M389.158 215.522C401.472 215.522 411.454 206.976 411.454 196.434C411.454 185.892 401.472 177.346 389.158 177.346C376.843 177.346 366.861 185.892 366.861 196.434C366.861 206.976 376.843 215.522 389.158 215.522Z" fill="#EDA1AB"/>
<path d="M510.012 215.522C522.327 215.522 532.309 206.976 532.309 196.434C532.309 185.892 522.327 177.346 510.012 177.346C497.698 177.346 487.715 185.892 487.715 196.434C487.715 206.976 497.698 215.522 510.012 215.522Z" fill="#EDA1AB"/>
<path d="M449.585 215.021C463.055 224.574 483.144 222.311 494.581 215.571C498.072 213.513 497.751 207.946 494.008 206.487C473.934 198.664 467.191 167.506 449.585 177.978C431.978 167.506 425.235 198.665 405.161 206.487C401.418 207.946 401.097 213.512 404.588 215.571C416.026 222.311 436.115 224.574 449.585 215.021Z" fill="#ABB6C4"/>
<path d="M581.824 130.001C536.656 146.306 452.92 132.957 401.956 99.8334C400.547 98.9174 398.783 98.8978 397.383 99.8318C376.354 113.861 334.659 134.717 317.343 130.001C303.635 113.044 337.377 37.9606 449.585 37.9606C561.794 37.9606 584.615 113.693 581.824 130.001Z" fill="#ABB6C4"/>
<path d="M317.344 130C330.136 133.484 356.228 123.011 377.468 111.646C360.625 100.62 351.493 84.249 348.597 66.9564C311.967 71.658 298.012 115.368 317.344 130Z" fill="#999FB0"/>
<path d="M497.018 184.183C500.164 184.183 502.714 181.441 502.714 178.059V168.261C502.714 164.878 500.164 162.137 497.018 162.137C493.871 162.137 491.321 164.878 491.321 168.261V178.059C491.321 181.441 493.871 184.183 497.018 184.183ZM495.95 200.73C488.904 197.983 483.505 191.427 478.285 185.087C471.116 176.378 462.312 165.679 449.585 171.199C436.862 165.678 428.054 176.378 420.884 185.087C415.664 191.428 410.267 197.983 403.22 200.73C394.876 203.982 394.054 216.345 401.851 220.942C414.148 228.188 434.415 230.722 449.585 222.125C463.884 230.228 484.002 228.789 497.319 220.942C505.132 216.335 504.277 203.976 495.95 200.73ZM452.722 209.909C450.819 208.559 448.352 208.559 446.448 209.909C436.04 217.291 419.713 216.356 409.334 211.278C417.911 207.179 423.997 199.788 429.417 193.204C438.212 182.521 441.369 180.091 446.828 183.336C448.544 184.357 450.628 184.357 452.344 183.336C457.248 180.418 459.968 181.317 469.754 193.204C475.174 199.787 481.261 207.179 489.837 211.278C479.456 216.356 463.129 217.29 452.722 209.909ZM402.152 184.183C405.298 184.183 407.849 181.441 407.849 178.059V168.261C407.849 164.878 405.298 162.137 402.152 162.137C399.006 162.137 396.455 164.878 396.455 168.261V178.059C396.455 181.441 399.006 184.183 402.152 184.183ZM610.85 125.952C612.281 86.7293 603.665 56.1284 585.199 34.9516C583.048 32.4849 579.443 32.3591 577.147 34.6724C574.852 36.9856 574.735 40.8609 576.887 43.3285C592.799 61.5771 600.411 88.3278 599.55 122.912C588.753 121.394 580.365 124.073 580.441 124.061C577.385 124.883 563.416 130.894 534.679 130.893C491.756 130.892 439.898 117.338 404.904 94.5937C401.632 92.4662 397.6 92.4784 394.379 94.628C385.325 100.668 369.939 109.517 353.909 116.237C326.92 127.55 318.651 124.065 318.727 124.06C311.205 122.048 303.253 121.869 295.43 123.694C293.283 91.4212 300.887 65.1054 317.601 47.2772C336.816 26.7823 366.803 18.6014 404.321 23.6223C409.208 24.2788 501.652 -4.54892 556.684 26.8982C559.464 28.4855 562.911 27.3514 564.389 24.3653C565.865 21.3792 564.811 17.6713 562.032 16.0832C527.526 -3.63359 474.614 -5.22991 404.746 11.3399C364.084 6.12233 331.191 15.5296 309.577 38.5836C289.852 59.6216 281.159 90.3982 284.31 127.791C267.962 136.228 256.696 153.746 256.696 173.955C256.696 202.45 279.242 226.009 307.201 225.451C315.745 253.226 333.024 275.14 356.085 290.454C337.004 313.435 323.49 343.277 317.769 375.351C313.826 397.461 329.711 417.999 350.722 417.999H361.928C365.074 417.999 367.625 415.258 367.625 411.875C367.625 408.493 365.074 405.751 361.928 405.751H350.721C336.847 405.751 326.364 392.198 328.959 377.656C334.465 346.786 347.667 318.185 366.287 296.595C366.443 296.68 366.595 296.768 366.752 296.852C379.102 317.722 399.324 349 417.591 373.285C434.083 395.212 465.12 395.166 481.579 373.285C499.844 349.002 520.066 317.725 532.417 296.853C532.574 296.769 532.726 296.68 532.883 296.596C551.504 318.185 564.705 346.786 570.212 377.656C572.804 392.188 562.332 405.751 548.449 405.751H389.618C386.471 405.751 383.921 408.493 383.921 411.875C383.921 415.258 386.471 417.999 389.618 417.999H548.447C569.473 417.999 585.341 397.445 581.401 375.35C575.68 343.276 562.166 313.434 543.084 290.453C566.144 275.14 583.424 253.228 591.968 225.451C619.866 226.006 642.472 202.514 642.472 173.954C642.473 152.133 629.337 133.45 610.85 125.952ZM302.277 165.758C299.487 164.123 296.699 162.613 294.115 161.354C291.249 159.957 287.873 161.322 286.574 164.402C285.275 167.483 286.544 171.111 289.41 172.509C293.138 174.326 297.346 176.723 301.298 179.26C300.943 191.313 301.918 202.598 304.065 213.158C284.033 211.959 268.089 194.837 268.089 173.955C268.089 151.385 286.806 132.972 309.373 134.818C305.905 144.745 303.531 155.086 302.277 165.758ZM472.72 365.585C460.791 381.442 438.354 381.411 426.45 365.585C412.607 347.182 397.268 324.111 385.554 305.356C393.805 308.433 402.499 310.883 411.536 312.687C422.652 329.376 433.621 345.079 440.426 354.028C445.21 360.318 454.071 360.17 458.743 354.028C465.55 345.077 476.52 329.373 487.633 312.687C496.67 310.883 505.364 308.433 513.614 305.356C501.902 324.112 486.562 347.183 472.72 365.585ZM427.232 315.13C441.908 316.777 457.23 316.781 471.938 315.13C463.3 327.87 455.276 339.236 449.923 346.275C449.747 346.507 449.42 346.504 449.248 346.275C443.895 339.238 435.871 327.871 427.232 315.13ZM449.585 304.118C375.6 304.118 312.614 262.894 312.614 183.967C312.614 167.386 315.398 151.52 320.895 136.73C344.092 138.268 385.149 115.063 399.676 105.506C424.712 121.612 457.886 133.676 493.195 139.506C525.615 144.858 556.313 144.09 578.549 137.476C583.865 152.053 586.556 167.665 586.556 183.967C586.556 262.88 523.587 304.118 449.585 304.118ZM595.104 213.158C597.237 202.662 598.227 191.386 597.87 179.259C601.823 176.722 606.031 174.326 609.759 172.509C612.624 171.112 613.895 167.483 612.595 164.402C611.296 161.323 607.92 159.956 605.055 161.354C602.47 162.613 599.682 164.123 596.892 165.758C595.638 155.087 593.263 144.745 589.796 134.818C612.401 132.97 631.079 151.421 631.079 173.955C631.08 194.838 615.138 211.959 595.104 213.158ZM558.863 170.786C551.535 168.342 534.626 167.353 532.309 167.353C529.162 167.353 526.612 170.094 526.612 173.477C526.612 176.858 529.162 179.6 532.309 179.6C535.217 179.6 550.189 180.717 555.487 182.486C558.485 183.485 561.681 181.689 562.616 178.452C563.548 175.22 561.868 171.789 558.863 170.786ZM366.861 167.352C364.544 167.352 347.634 168.341 340.306 170.786C337.301 171.788 335.622 175.22 336.554 178.45C337.487 181.684 340.681 183.484 343.683 182.483C348.98 180.716 363.953 179.599 366.861 179.599C370.007 179.599 372.558 176.856 372.558 173.475C372.558 170.093 370.007 167.352 366.861 167.352Z" fill="black"/>
</svg>
